<svg width="32" height="32" viewBox="0 0 32 32" fill="none" xmlns="http://www.w3.org/2000/svg">
<path d="M4 17.3333C8.8 6.66659 23.2 6.66659 28 17.3333" stroke="#999999" stroke-width="1.5" stroke-linecap="round" stroke-linejoin="round"/>
<path d="M16 22.6665C15.4747 22.6665 14.9546 22.563 14.4693 22.362C13.984 22.161 13.543 21.8664 13.1716 21.4949C12.8001 21.1235 12.5055 20.6825 12.3045 20.1972C12.1035 19.7119 12 19.1918 12 18.6665C12 18.1412 12.1035 17.6211 12.3045 17.1358C12.5055 16.6505 12.8001 16.2095 13.1716 15.8381C13.543 15.4666 13.984 15.172 14.4693 14.971C14.9546 14.77 15.4747 14.6665 16 14.6665C17.0609 14.6665 18.0783 15.0879 18.8284 15.8381C19.5786 16.5882 20 17.6056 20 18.6665C20 19.7274 19.5786 20.7448 18.8284 21.4949C18.0783 22.2451 17.0609 22.6665 16 22.6665Z" stroke="#999999" stroke-width="1.5" stroke-linecap="round" stroke-linejoin="round"/>
</svg>
